<?xml version="1.0" encoding="UTF-8" standalone="no"?>
<!DOCTYPE svg PUBLIC "-//W3C//DTD SVG 1.1//EN"
 "http://www.w3.org/Graphics/SVG/1.1/DTD/svg11.dtd">
<!-- Generated by graphviz version 2.40.1 (20161225.0304)
 -->
<!-- Title: G Pages: 1 -->
<svg width="525pt" height="466pt"
 viewBox="0.00 0.00 525.49 466.00" xmlns="http://www.w3.org/2000/svg" xmlns:xlink="http://www.w3.org/1999/xlink">
<g id="graph0" class="graph" transform="scale(1 1) rotate(0) translate(4 462)">
<title>G</title>
<polygon fill="#ffffff" stroke="transparent" points="-4,4 -4,-462 521.4913,-462 521.4913,4 -4,4"/>
<g id="clust1" class="cluster">
<title>cluster_Global</title>
<path fill="none" stroke="#c0c0c0" d="M149.4913,-8C149.4913,-8 497.4913,-8 497.4913,-8 503.4913,-8 509.4913,-14 509.4913,-20 509.4913,-20 509.4913,-438 509.4913,-438 509.4913,-444 503.4913,-450 497.4913,-450 497.4913,-450 149.4913,-450 149.4913,-450 143.4913,-450 137.4913,-444 137.4913,-438 137.4913,-438 137.4913,-20 137.4913,-20 137.4913,-14 143.4913,-8 149.4913,-8"/>
<text text-anchor="middle" x="323.4913" y="-437.2" font-family="Times,serif" font-size="11.00" fill="#c0c0c0">Global</text>
</g>
<g id="clust2" class="cluster">
<title>cluster_\acdhOeaw</title>
<path fill="none" stroke="#c0c0c0" d="M157.4913,-16C157.4913,-16 489.4913,-16 489.4913,-16 495.4913,-16 501.4913,-22 501.4913,-28 501.4913,-28 501.4913,-410 501.4913,-410 501.4913,-416 495.4913,-422 489.4913,-422 489.4913,-422 157.4913,-422 157.4913,-422 151.4913,-422 145.4913,-416 145.4913,-410 145.4913,-410 145.4913,-28 145.4913,-28 145.4913,-22 151.4913,-16 157.4913,-16"/>
<text text-anchor="middle" x="323.4913" y="-409.2" font-family="Times,serif" font-size="11.00" fill="#c0c0c0">acdhOeaw</text>
</g>
<g id="clust3" class="cluster">
<title>cluster_\acdhOeaw\acdhRepoLib</title>
<path fill="none" stroke="#c0c0c0" d="M165.4913,-24C165.4913,-24 481.4913,-24 481.4913,-24 487.4913,-24 493.4913,-30 493.4913,-36 493.4913,-36 493.4913,-382 493.4913,-382 493.4913,-388 487.4913,-394 481.4913,-394 481.4913,-394 165.4913,-394 165.4913,-394 159.4913,-394 153.4913,-388 153.4913,-382 153.4913,-382 153.4913,-36 153.4913,-36 153.4913,-30 159.4913,-24 165.4913,-24"/>
<text text-anchor="middle" x="323.4913" y="-381.2" font-family="Times,serif" font-size="11.00" fill="#c0c0c0">acdhRepoLib</text>
</g>
<g id="clust4" class="cluster">
<title>cluster_\acdhOeaw\acdhRepoLib\exception</title>
<path fill="none" stroke="#c0c0c0" d="M173.4913,-186C173.4913,-186 473.4913,-186 473.4913,-186 479.4913,-186 485.4913,-192 485.4913,-198 485.4913,-198 485.4913,-354 485.4913,-354 485.4913,-360 479.4913,-366 473.4913,-366 473.4913,-366 173.4913,-366 173.4913,-366 167.4913,-366 161.4913,-360 161.4913,-354 161.4913,-354 161.4913,-198 161.4913,-198 161.4913,-192 167.4913,-186 173.4913,-186"/>
<text text-anchor="middle" x="323.4913" y="-353.2" font-family="Times,serif" font-size="11.00" fill="#c0c0c0">exception</text>
</g>
<!-- \\acdhOeaw\\acdhRepoLib\\exception\\RepoLibException -->
<g id="node1" class="node">
<title>\\acdhOeaw\\acdhRepoLib\\exception\\RepoLibException</title>
<polygon fill="none" stroke="#000000" points="294.4913,-284 169.4913,-284 169.4913,-248 294.4913,-248 294.4913,-284"/>
<text text-anchor="middle" x="231.9913" y="-263.2" font-family="Courier,monospace" font-size="11.00" fill="#000000">RepoLibException</text>
</g>
<!-- \\Exception -->
<g id="node8" class="node">
<title>\\Exception</title>
<ellipse fill="none" stroke="#000000" cx="48.7457" cy="-266" rx="48.9926" ry="18"/>
<text text-anchor="middle" x="48.7457" y="-262.3" font-family="Times,serif" font-size="14.00" fill="#c0c0c0">\Exception</text>
</g>
<!-- \\acdhOeaw\\acdhRepoLib\\exception\\RepoLibException&#45;&gt;\\Exception -->
<g id="edge1" class="edge">
<title>\\acdhOeaw\\acdhRepoLib\\exception\\RepoLibException&#45;&gt;\\Exception</title>
<path fill="none" stroke="#000000" d="M169.4411,-266C149.4873,-266 127.4812,-266 107.7848,-266"/>
<polygon fill="none" stroke="#000000" points="107.7186,-262.5001 97.7186,-266 107.7186,-269.5001 107.7186,-262.5001"/>
</g>
<!-- \\acdhOeaw\\acdhRepoLib\\exception\\NotFound -->
<g id="node2" class="node">
<title>\\acdhOeaw\\acdhRepoLib\\exception\\NotFound</title>
<polygon fill="none" stroke="#000000" points="457.4913,-338 386.4913,-338 386.4913,-302 457.4913,-302 457.4913,-338"/>
<text text-anchor="middle" x="421.9913" y="-317.2" font-family="Courier,monospace" font-size="11.00" fill="#000000">NotFound</text>
</g>
<!-- \\acdhOeaw\\acdhRepoLib\\exception\\NotFound&#45;&gt;\\acdhOeaw\\acdhRepoLib\\exception\\RepoLibException -->
<g id="edge2" class="edge">
<title>\\acdhOeaw\\acdhRepoLib\\exception\\NotFound&#45;&gt;\\acdhOeaw\\acdhRepoLib\\exception\\RepoLibException</title>
<path fill="none" stroke="#000000" d="M386.2538,-309.843C363.1756,-303.2839 332.3285,-294.5169 304.2854,-286.5467"/>
<polygon fill="none" stroke="#000000" points="305.0764,-283.133 294.5005,-283.7658 303.1627,-289.8663 305.0764,-283.133"/>
</g>
<!-- \\acdhOeaw\\acdhRepoLib\\exception\\AmbiguousMatch -->
<g id="node3" class="node">
<title>\\acdhOeaw\\acdhRepoLib\\exception\\AmbiguousMatch</title>
<polygon fill="none" stroke="#000000" points="477.4913,-284 366.4913,-284 366.4913,-248 477.4913,-248 477.4913,-284"/>
<text text-anchor="middle" x="421.9913" y="-263.2" font-family="Courier,monospace" font-size="11.00" fill="#000000">AmbiguousMatch</text>
</g>
<!-- \\acdhOeaw\\acdhRepoLib\\exception\\AmbiguousMatch&#45;&gt;\\acdhOeaw\\acdhRepoLib\\exception\\RepoLibException -->
<g id="edge3" class="edge">
<title>\\acdhOeaw\\acdhRepoLib\\exception\\AmbiguousMatch&#45;&gt;\\acdhOeaw\\acdhRepoLib\\exception\\RepoLibException</title>
<path fill="none" stroke="#000000" d="M366.2689,-266C347.0659,-266 325.2642,-266 304.8969,-266"/>
<polygon fill="none" stroke="#000000" points="304.7161,-262.5001 294.7161,-266 304.7161,-269.5001 304.7161,-262.5001"/>
</g>
<!-- \\acdhOeaw\\acdhRepoLib\\exception\\Deleted -->
<g id="node4" class="node">
<title>\\acdhOeaw\\acdhRepoLib\\exception\\Deleted</title>
<polygon fill="none" stroke="#000000" points="453.9913,-230 389.9913,-230 389.9913,-194 453.9913,-194 453.9913,-230"/>
<text text-anchor="middle" x="421.9913" y="-209.2" font-family="Courier,monospace" font-size="11.00" fill="#000000">Deleted</text>
</g>
<!-- \\acdhOeaw\\acdhRepoLib\\exception\\Deleted&#45;&gt;\\acdhOeaw\\acdhRepoLib\\exception\\RepoLibException -->
<g id="edge4" class="edge">
<title>\\acdhOeaw\\acdhRepoLib\\exception\\Deleted&#45;&gt;\\acdhOeaw\\acdhRepoLib\\exception\\RepoLibException</title>
<path fill="none" stroke="#000000" d="M389.7604,-221.1604C366.4556,-227.7838 334.0289,-236.9999 304.6309,-245.3551"/>
<polygon fill="none" stroke="#000000" points="303.457,-242.05 294.7949,-248.1506 305.3708,-248.7833 303.457,-242.05"/>
</g>
<!-- \\acdhOeaw\\acdhRepoLib\\RepoResource -->
<g id="node5" class="node">
<title>\\acdhOeaw\\acdhRepoLib\\RepoResource</title>
<polygon fill="none" stroke="#000000" points="470.9913,-176 372.9913,-176 372.9913,-140 470.9913,-140 470.9913,-176"/>
<text text-anchor="middle" x="421.9913" y="-155.2" font-family="Courier,monospace" font-size="11.00" fill="#000000">RepoResource</text>
</g>
<!-- \\acdhOeaw\\acdhRepoLib\\SearchConfig -->
<g id="node6" class="node">
<title>\\acdhOeaw\\acdhRepoLib\\SearchConfig</title>
<polygon fill="none" stroke="#000000" points="470.9913,-122 372.9913,-122 372.9913,-86 470.9913,-86 470.9913,-122"/>
<text text-anchor="middle" x="421.9913" y="-101.2" font-family="Courier,monospace" font-size="11.00" fill="#000000">SearchConfig</text>
</g>
<!-- \\acdhOeaw\\acdhRepoLib\\Schema -->
<g id="node7" class="node">
<title>\\acdhOeaw\\acdhRepoLib\\Schema</title>
<polygon fill="none" stroke="#000000" points="450.4913,-68 393.4913,-68 393.4913,-32 450.4913,-32 450.4913,-68"/>
<text text-anchor="middle" x="421.9913" y="-47.2" font-family="Courier,monospace" font-size="11.00" fill="#000000">Schema</text>
</g>
</g>
</svg>
